# xmcd CD database file
#
# Track frame offsets:
#	150
#	17372
#	36945
#	55767
#	80679
#	106046
#	131953
#	152743
#	174545
#	196372
#	223012
#	246024
#
# Disc length: 3598 seconds
#
# Revision: 0
# Processed by: cddbd v1.5.1PL0 Copyright (c) Steve Scherf et al.
# Submitted via: CDex 1.51
#
DISCID=9d0e0c0c
DTITLE=Varios - Coleccion De Oro De La Salsa disco3
DYEAR=2003
DGENRE=Salsa
TTITLE0=Lloraras-Oscar D'Leon
TTITLE1=Lo Quiero A Morir-Zayda
TTITLE2=A Pesar De La Distancia-Hansel Camacho
TTITLE3=Yambeque-Sonora Poncena
TTITLE4=Pa' La Paloma-Alquimia la sonora del XXI
TTITLE5=No Quedo Ni El Gato-Zaperoco
TTITLE6=Hoy Por Hoy-Bobby Cruz
TTITLE7=Tu Intrusa Y Amante-Orqesta Canela
TTITLE8=Los Fariseos-Richie Ray t Bobby Cruz
TTITLE9=Fuego En El 23-Sonora Poncena
TTITLE10=Cali Pachanguero-Grupo Niche
TTITLE11=Mascaras-Tamba Fuego
EXTD=YEAR: 2003
EXTT0=
EXTT1=
EXTT2=
EXTT3=
EXTT4=
EXTT5=
EXTT6=
EXTT7=
EXTT8=
EXTT9=
EXTT10=
EXTT11=
PLAYORDER=
